<mxfile host="www.draw.io" modified="2023-12-21T14:32:42.234Z" agent="Mozilla/5.0 (Windows NT 10.0; Win64; x64) AppleWebKit/537.36 (KHTML, like Gecko) Chrome/120.0.0.0 Safari/537.36" etag="yYUtHzwndk832EA1taTe" version="22.1.11" type="device">
  <diagram name="Page-1" id="e9vNXzDvL6UtY1z6IEPx">
    <mxGraphModel dx="4522" dy="2661" grid="1" gridSize="10" guides="1" tooltips="1" connect="1" arrows="1" fold="1" page="1" pageScale="1" pageWidth="827" pageHeight="1169" math="0" shadow="0">
      <root>
        <mxCell id="0" />
        <mxCell id="1" parent="0" />
        <mxCell id="cNO487knKn3a9GfRD7Nd-52" value="" style="endArrow=none;html=1;rounded=0;exitX=0.004;exitY=0.406;exitDx=0;exitDy=0;entryX=1;entryY=0.5;entryDx=0;entryDy=0;endFill=0;startArrow=diamondThin;startFill=1;exitPerimeter=0;" parent="1" source="TR-krXGhEeYYalR0OKf3-2" target="TR-krXGhEeYYalR0OKf3-5" edge="1">
          <mxGeometry width="50" height="50" relative="1" as="geometry">
            <mxPoint x="250" y="260" as="sourcePoint" />
            <mxPoint x="300" y="210" as="targetPoint" />
          </mxGeometry>
        </mxCell>
        <mxCell id="cNO487knKn3a9GfRD7Nd-53" value="&lt;b&gt;&lt;font style=&quot;font-size: 16px;&quot;&gt;Manage &lt;br&gt;Appointment&lt;/font&gt;&lt;/b&gt;" style="edgeLabel;html=1;align=center;verticalAlign=middle;resizable=0;points=[];" parent="cNO487knKn3a9GfRD7Nd-52" vertex="1" connectable="0">
          <mxGeometry x="-0.0589" y="2" relative="1" as="geometry">
            <mxPoint x="-12" y="-31" as="offset" />
          </mxGeometry>
        </mxCell>
        <mxCell id="cNO487knKn3a9GfRD7Nd-56" value="" style="endArrow=diamondThin;html=1;rounded=0;exitX=0;exitY=0.5;exitDx=0;exitDy=0;endFill=1;startArrow=none;startFill=0;" parent="1" source="TR-krXGhEeYYalR0OKf3-5" edge="1">
          <mxGeometry width="50" height="50" relative="1" as="geometry">
            <mxPoint x="-305" y="345" as="sourcePoint" />
            <mxPoint x="-530" y="321" as="targetPoint" />
          </mxGeometry>
        </mxCell>
        <mxCell id="cNO487knKn3a9GfRD7Nd-57" value="&lt;b&gt;&lt;font style=&quot;font-size: 16px;&quot;&gt;Manage &lt;br&gt;Appointment&lt;/font&gt;&lt;/b&gt;" style="edgeLabel;html=1;align=center;verticalAlign=middle;resizable=0;points=[];" parent="cNO487knKn3a9GfRD7Nd-56" vertex="1" connectable="0">
          <mxGeometry x="-0.0589" y="2" relative="1" as="geometry">
            <mxPoint y="-33" as="offset" />
          </mxGeometry>
        </mxCell>
        <mxCell id="cNO487knKn3a9GfRD7Nd-60" value="" style="endArrow=none;html=1;rounded=0;exitX=0.361;exitY=1.011;exitDx=0;exitDy=0;entryX=0.5;entryY=0;entryDx=0;entryDy=0;endFill=0;startArrow=diamondThin;startFill=1;exitPerimeter=0;" parent="1" source="TR-krXGhEeYYalR0OKf3-3" target="TR-krXGhEeYYalR0OKf3-10" edge="1">
          <mxGeometry width="50" height="50" relative="1" as="geometry">
            <mxPoint x="285" y="599.5" as="sourcePoint" />
            <mxPoint x="110" y="584.5" as="targetPoint" />
          </mxGeometry>
        </mxCell>
        <mxCell id="cNO487knKn3a9GfRD7Nd-61" value="&lt;b&gt;&lt;font style=&quot;font-size: 16px;&quot;&gt;Manage &lt;br&gt;Appointment&lt;/font&gt;&lt;/b&gt;" style="edgeLabel;html=1;align=center;verticalAlign=middle;resizable=0;points=[];" parent="cNO487knKn3a9GfRD7Nd-60" vertex="1" connectable="0">
          <mxGeometry x="-0.0589" y="2" relative="1" as="geometry">
            <mxPoint x="48" y="3" as="offset" />
          </mxGeometry>
        </mxCell>
        <mxCell id="cNO487knKn3a9GfRD7Nd-64" value="" style="endArrow=none;html=1;rounded=0;exitX=1;exitY=0.5;exitDx=0;exitDy=0;entryX=0;entryY=0.5;entryDx=0;entryDy=0;endFill=0;startArrow=none;startFill=0;" parent="1" source="TR-krXGhEeYYalR0OKf3-2" target="TR-krXGhEeYYalR0OKf3-17" edge="1">
          <mxGeometry width="50" height="50" relative="1" as="geometry">
            <mxPoint x="735" y="350" as="sourcePoint" />
            <mxPoint x="690" y="469" as="targetPoint" />
          </mxGeometry>
        </mxCell>
        <mxCell id="cNO487knKn3a9GfRD7Nd-65" value="&lt;span style=&quot;font-size: 16px;&quot;&gt;&lt;b&gt;Manage Doctor&lt;/b&gt;&lt;/span&gt;" style="edgeLabel;html=1;align=center;verticalAlign=middle;resizable=0;points=[];" parent="cNO487knKn3a9GfRD7Nd-64" vertex="1" connectable="0">
          <mxGeometry x="-0.0589" y="2" relative="1" as="geometry">
            <mxPoint x="3" y="-14" as="offset" />
          </mxGeometry>
        </mxCell>
        <mxCell id="cNO487knKn3a9GfRD7Nd-71" value="&lt;span style=&quot;font-size: 16px;&quot;&gt;&lt;b&gt;Manage Message&lt;/b&gt;&lt;/span&gt;" style="edgeLabel;html=1;align=center;verticalAlign=middle;resizable=0;points=[];" parent="1" vertex="1" connectable="0">
          <mxGeometry x="109.99712073739803" y="529.9996581283772" as="geometry" />
        </mxCell>
        <mxCell id="cNO487knKn3a9GfRD7Nd-79" value="" style="endArrow=block;html=1;rounded=0;exitX=0.515;exitY=1.004;exitDx=0;exitDy=0;entryX=0.5;entryY=0;entryDx=0;entryDy=0;endFill=0;startArrow=none;startFill=0;exitPerimeter=0;" parent="1" source="cNO487knKn3a9GfRD7Nd-51" target="TR-krXGhEeYYalR0OKf3-19" edge="1">
          <mxGeometry width="50" height="50" relative="1" as="geometry">
            <mxPoint x="-345" y="180" as="sourcePoint" />
            <mxPoint x="-550" y="185" as="targetPoint" />
          </mxGeometry>
        </mxCell>
        <mxCell id="cNO487knKn3a9GfRD7Nd-80" value="&lt;span style=&quot;font-size: 16px;&quot;&gt;&lt;b&gt;View&lt;/b&gt;&lt;/span&gt;" style="edgeLabel;html=1;align=center;verticalAlign=middle;resizable=0;points=[];" parent="cNO487knKn3a9GfRD7Nd-79" vertex="1" connectable="0">
          <mxGeometry x="-0.0589" y="2" relative="1" as="geometry">
            <mxPoint y="2" as="offset" />
          </mxGeometry>
        </mxCell>
        <mxCell id="cNO487knKn3a9GfRD7Nd-91" value="" style="endArrow=none;html=1;rounded=0;exitX=1;exitY=0.5;exitDx=0;exitDy=0;entryX=0;entryY=0.5;entryDx=0;entryDy=0;endFill=0;startArrow=diamondThin;startFill=1;fontColor=#000000;" parent="1" source="TR-krXGhEeYYalR0OKf3-14" target="TR-krXGhEeYYalR0OKf3-40" edge="1">
          <mxGeometry width="50" height="50" relative="1" as="geometry">
            <mxPoint x="827" y="165" as="sourcePoint" />
            <mxPoint x="227" y="-20" as="targetPoint" />
          </mxGeometry>
        </mxCell>
        <mxCell id="cNO487knKn3a9GfRD7Nd-92" value="&lt;span style=&quot;font-size: 16px;&quot;&gt;&lt;b&gt;Contains&lt;/b&gt;&lt;/span&gt;" style="edgeLabel;html=1;align=center;verticalAlign=middle;resizable=0;points=[];fontColor=#000000;" parent="cNO487knKn3a9GfRD7Nd-91" vertex="1" connectable="0">
          <mxGeometry x="-0.0589" y="2" relative="1" as="geometry">
            <mxPoint x="26" y="-15" as="offset" />
          </mxGeometry>
        </mxCell>
        <mxCell id="mHEznrFvdN_-LJcOZgv0-1" value="" style="group;fontColor=#000000;" parent="1" vertex="1" connectable="0">
          <mxGeometry x="-240" y="-340" width="620" height="330" as="geometry" />
        </mxCell>
        <mxCell id="TR-krXGhEeYYalR0OKf3-13" value="Prescription" style="swimlane;fontStyle=1;align=center;verticalAlign=top;childLayout=stackLayout;horizontal=1;startSize=26;horizontalStack=0;resizeParent=1;resizeParentMax=0;resizeLast=0;collapsible=1;marginBottom=0;whiteSpace=wrap;html=1;fontSize=16;fontColor=#000000;" parent="mHEznrFvdN_-LJcOZgv0-1" vertex="1">
          <mxGeometry x="68.89" width="496" height="330" as="geometry">
            <mxRectangle x="620" y="350" width="130" height="30" as="alternateBounds" />
          </mxGeometry>
        </mxCell>
        <mxCell id="TR-krXGhEeYYalR0OKf3-14" value="&lt;div&gt;-prescriptionld:int&lt;/div&gt;&lt;div&gt;-patientld:int&lt;/div&gt;&lt;div&gt;-doctorld:int&lt;/div&gt;&lt;div&gt;-Signature: string&lt;br&gt;&lt;/div&gt;&lt;div&gt;-createTime:date&lt;/div&gt;&lt;div&gt;-description:string&lt;/div&gt;&lt;div&gt;-status:Boolean&lt;/div&gt;&lt;div&gt;&lt;br&gt;&lt;/div&gt;" style="text;strokeColor=none;fillColor=none;align=left;verticalAlign=top;spacingLeft=4;spacingRight=4;overflow=hidden;rotatable=0;points=[[0,0.5],[1,0.5]];portConstraint=eastwest;whiteSpace=wrap;html=1;fontSize=16;fontColor=#000000;" parent="TR-krXGhEeYYalR0OKf3-13" vertex="1">
          <mxGeometry y="26" width="496" height="144" as="geometry" />
        </mxCell>
        <mxCell id="TR-krXGhEeYYalR0OKf3-15" value="+showPrescription(prescriptionID, createTime): Prescription&lt;br&gt;+returnIncorrectDoseAndForm(status): Prescription&lt;br&gt;+returnCorrectDoseAndForm(status): Prescription&lt;br&gt;+notifyPrescription(PrescriptionID): VOID&lt;br&gt;+checkDosageAndForm(description): VOID&lt;br&gt;+checkSignature(Signature): VOID&lt;br&gt;+generatePrescription(patientId, doctorId, createTime, description, Signature)&lt;p class=&quot;MsoNormal&quot;&gt;&lt;span style=&quot;mso-spacerun:&#39;yes&#39;;font-family:Arial;mso-fareast-font-family:宋体;&lt;br/&gt;font-size:12.0000pt;mso-font-kerning:1.0000pt;&quot;&gt;&lt;/span&gt;&lt;/p&gt;&amp;nbsp;)" style="text;strokeColor=default;fillColor=none;align=left;verticalAlign=top;spacingLeft=4;spacingRight=4;overflow=hidden;rotatable=0;points=[[0,0.5],[1,0.5]];portConstraint=eastwest;whiteSpace=wrap;html=1;fontSize=16;fontColor=#000000;" parent="TR-krXGhEeYYalR0OKf3-13" vertex="1">
          <mxGeometry y="170" width="496" height="160" as="geometry" />
        </mxCell>
        <mxCell id="cNO487knKn3a9GfRD7Nd-90" value="1..*" style="text;html=1;align=center;verticalAlign=middle;resizable=0;points=[];autosize=1;strokeColor=none;fillColor=none;fontStyle=1;fontSize=16;fontColor=#000000;" parent="mHEznrFvdN_-LJcOZgv0-1" vertex="1">
          <mxGeometry x="18.89" y="200" width="50" height="30" as="geometry" />
        </mxCell>
        <mxCell id="cNO487knKn3a9GfRD7Nd-93" value="&lt;span style=&quot;font-size: 16px;&quot;&gt;1..1&lt;/span&gt;" style="text;html=1;align=center;verticalAlign=middle;resizable=0;points=[];autosize=1;strokeColor=none;fillColor=none;fontStyle=1;fontSize=16;fontColor=#000000;" parent="mHEznrFvdN_-LJcOZgv0-1" vertex="1">
          <mxGeometry x="570.0011111111111" y="70" width="50" height="30" as="geometry" />
        </mxCell>
        <mxCell id="cNO487knKn3a9GfRD7Nd-99" value="&lt;span style=&quot;font-size: 16px;&quot;&gt;0..*&lt;/span&gt;" style="text;html=1;align=center;verticalAlign=middle;resizable=0;points=[];autosize=1;strokeColor=none;fillColor=none;fontStyle=1;fontSize=16;fontColor=#000000;" parent="mHEznrFvdN_-LJcOZgv0-1" vertex="1">
          <mxGeometry x="560.0011111111111" y="200" width="50" height="30" as="geometry" />
        </mxCell>
        <mxCell id="mHEznrFvdN_-LJcOZgv0-2" value="" style="group" parent="1" vertex="1" connectable="0">
          <mxGeometry x="-965" y="-300" width="460" height="270" as="geometry" />
        </mxCell>
        <mxCell id="cNO487knKn3a9GfRD7Nd-49" value="Medical Records" style="swimlane;fontStyle=1;align=center;verticalAlign=top;childLayout=stackLayout;horizontal=1;startSize=26;horizontalStack=0;resizeParent=1;resizeParentMax=0;resizeLast=0;collapsible=1;marginBottom=0;whiteSpace=wrap;html=1;fontSize=16;" parent="mHEznrFvdN_-LJcOZgv0-2" vertex="1">
          <mxGeometry width="410" height="280" as="geometry">
            <mxRectangle x="570" y="100" width="140" height="30" as="alternateBounds" />
          </mxGeometry>
        </mxCell>
        <mxCell id="cNO487knKn3a9GfRD7Nd-50" value="-patientId:int&lt;br style=&quot;border-color: var(--border-color);&quot;&gt;-medicalHistory:string&lt;br style=&quot;border-color: var(--border-color);&quot;&gt;-currentConditions:string&lt;br style=&quot;border-color: var(--border-color);&quot;&gt;-testResults:string&lt;br&gt;-treatmentId: int&lt;br style=&quot;border-color: var(--border-color);&quot;&gt;-treatmentPlan:List&amp;lt;Treatment&amp;gt;&lt;br&gt;-diagnosis: string" style="text;strokeColor=none;fillColor=none;align=left;verticalAlign=top;spacingLeft=4;spacingRight=4;overflow=hidden;rotatable=0;points=[[0,0.5],[1,0.5]];portConstraint=eastwest;whiteSpace=wrap;html=1;fontSize=16;" parent="cNO487knKn3a9GfRD7Nd-49" vertex="1">
          <mxGeometry y="26" width="410" height="144" as="geometry" />
        </mxCell>
        <mxCell id="cNO487knKn3a9GfRD7Nd-51" value="+updateMedicalHistory(patientId, medicalHistory): VOID&lt;br style=&quot;border-color: var(--border-color);&quot;&gt;+updateTreatmentPlan(doctorId, patientId): VOID&lt;br style=&quot;border-color: var(--border-color);&quot;&gt;+updateTestResults(doctorId, patientId, testId):VOID&lt;br&gt;+viewDiagnosis(diagnosis): Record&lt;br&gt;+viewTreatments(treatmentId): Record" style="text;strokeColor=default;fillColor=none;align=left;verticalAlign=top;spacingLeft=4;spacingRight=4;overflow=hidden;rotatable=0;points=[[0,0.5],[1,0.5]];portConstraint=eastwest;whiteSpace=wrap;html=1;fontSize=16;" parent="cNO487knKn3a9GfRD7Nd-49" vertex="1">
          <mxGeometry y="170" width="410" height="110" as="geometry" />
        </mxCell>
        <mxCell id="cNO487knKn3a9GfRD7Nd-86" value="&lt;span style=&quot;font-size: 16px;&quot;&gt;1..*&lt;/span&gt;" style="text;html=1;align=center;verticalAlign=middle;resizable=0;points=[];autosize=1;strokeColor=none;fillColor=none;fontStyle=1;fontSize=16;" parent="mHEznrFvdN_-LJcOZgv0-2" vertex="1">
          <mxGeometry x="410" y="164.3478260869565" width="50" height="30" as="geometry" />
        </mxCell>
        <mxCell id="mHEznrFvdN_-LJcOZgv0-3" value="" style="group" parent="1" vertex="1" connectable="0">
          <mxGeometry x="-980" y="180" width="490" height="420" as="geometry" />
        </mxCell>
        <mxCell id="TR-krXGhEeYYalR0OKf3-19" value="Patient" style="swimlane;fontStyle=1;align=center;verticalAlign=top;childLayout=stackLayout;horizontal=1;startSize=26;horizontalStack=0;resizeParent=1;resizeParentMax=0;resizeLast=0;collapsible=1;marginBottom=0;whiteSpace=wrap;html=1;fontSize=16;" parent="mHEznrFvdN_-LJcOZgv0-3" vertex="1">
          <mxGeometry y="30" width="450" height="370" as="geometry">
            <mxRectangle x="-100" y="290" width="100" height="30" as="alternateBounds" />
          </mxGeometry>
        </mxCell>
        <mxCell id="TR-krXGhEeYYalR0OKf3-20" value="-patientId: int&lt;br&gt;-name: string&lt;br&gt;-phoneNumber: string&lt;br&gt;-photo: string&lt;br&gt;-dateOfBirth: string&lt;br&gt;-gender: string&lt;br&gt;-username: string&lt;br&gt;-password: string" style="text;strokeColor=none;fillColor=none;align=left;verticalAlign=top;spacingLeft=4;spacingRight=4;overflow=hidden;rotatable=0;points=[[0,0.5],[1,0.5]];portConstraint=eastwest;whiteSpace=wrap;html=1;fontSize=16;" parent="TR-krXGhEeYYalR0OKf3-19" vertex="1">
          <mxGeometry y="26" width="450" height="174" as="geometry" />
        </mxCell>
        <mxCell id="TR-krXGhEeYYalR0OKf3-21" value="&lt;div&gt;+register(patientName, gender, username, phoneNumer): VOID&lt;/div&gt;&lt;div&gt;+viewMedicalHistory(patientId):VOID&lt;/div&gt;&lt;div&gt;+requestPrescription(patientId): VOID&lt;/div&gt;&lt;div&gt;+viewBillingInfo(patientId): List&amp;lt;Billing&amp;gt;&lt;/div&gt;&lt;div&gt;+scheduleAppointment(patientId): VOID&lt;/div&gt;&lt;div&gt;+cancelAppointment(patientId): VOID&lt;/div&gt;&lt;div&gt;+rescheduleAppointment(appointmentId): VOID&lt;/div&gt;&lt;div&gt;receiveNotification(): List&amp;lt;Notification&amp;gt;&lt;/div&gt;&lt;div&gt;&lt;br&gt;&lt;/div&gt;" style="text;strokeColor=default;fillColor=none;align=left;verticalAlign=top;spacingLeft=4;spacingRight=4;overflow=hidden;rotatable=0;points=[[0,0.5],[1,0.5]];portConstraint=eastwest;whiteSpace=wrap;html=1;fontSize=16;" parent="TR-krXGhEeYYalR0OKf3-19" vertex="1">
          <mxGeometry y="200" width="450" height="170" as="geometry" />
        </mxCell>
        <mxCell id="cNO487knKn3a9GfRD7Nd-58" value="&lt;span style=&quot;font-size: 16px;&quot;&gt;1&lt;/span&gt;" style="text;html=1;align=center;verticalAlign=middle;resizable=0;points=[];autosize=1;strokeColor=none;fillColor=none;fontStyle=1;fontSize=16;" parent="mHEznrFvdN_-LJcOZgv0-3" vertex="1">
          <mxGeometry x="450" y="140" width="30" height="30" as="geometry" />
        </mxCell>
        <mxCell id="cNO487knKn3a9GfRD7Nd-76" value="&lt;span style=&quot;font-size: 16px;&quot;&gt;1&lt;/span&gt;" style="text;html=1;align=center;verticalAlign=middle;resizable=0;points=[];autosize=1;strokeColor=none;fillColor=none;fontStyle=1;fontSize=16;" parent="mHEznrFvdN_-LJcOZgv0-3" vertex="1">
          <mxGeometry x="380" y="400" width="30" height="30" as="geometry" />
        </mxCell>
        <mxCell id="cNO487knKn3a9GfRD7Nd-81" value="&lt;span style=&quot;font-size: 16px;&quot;&gt;1..1&lt;/span&gt;" style="text;html=1;align=center;verticalAlign=middle;resizable=0;points=[];autosize=1;strokeColor=none;fillColor=none;fontStyle=1;fontSize=16;" parent="mHEznrFvdN_-LJcOZgv0-3" vertex="1">
          <mxGeometry x="230" width="50" height="30" as="geometry" />
        </mxCell>
        <mxCell id="cNO487knKn3a9GfRD7Nd-89" value="&lt;span style=&quot;font-size: 16px;&quot;&gt;1&lt;/span&gt;" style="text;html=1;align=center;verticalAlign=middle;resizable=0;points=[];autosize=1;strokeColor=none;fillColor=none;fontStyle=1;fontSize=16;" parent="mHEznrFvdN_-LJcOZgv0-3" vertex="1">
          <mxGeometry x="460" width="30" height="30" as="geometry" />
        </mxCell>
        <mxCell id="mHEznrFvdN_-LJcOZgv0-4" value="" style="group" parent="1" vertex="1" connectable="0">
          <mxGeometry x="-362.5" y="243" width="455" height="277" as="geometry" />
        </mxCell>
        <mxCell id="TR-krXGhEeYYalR0OKf3-4" value="Appointment" style="swimlane;fontStyle=1;align=center;verticalAlign=top;childLayout=stackLayout;horizontal=1;startSize=26;horizontalStack=0;resizeParent=1;resizeParentMax=0;resizeLast=0;collapsible=1;marginBottom=0;whiteSpace=wrap;html=1;fontSize=16;" parent="mHEznrFvdN_-LJcOZgv0-4" vertex="1">
          <mxGeometry x="35" width="380" height="256.9583333333333" as="geometry">
            <mxRectangle x="570" y="100" width="140" height="30" as="alternateBounds" />
          </mxGeometry>
        </mxCell>
        <mxCell id="TR-krXGhEeYYalR0OKf3-5" value="&lt;div&gt;-appointmentld:int&lt;/div&gt;&lt;div&gt;-patientld:int&lt;/div&gt;&lt;div&gt;-doctorld:int&lt;/div&gt;&lt;div&gt;&lt;span style=&quot;background-color: initial;&quot;&gt;-appointmentTime:date&lt;/span&gt;&lt;/div&gt;&lt;div&gt;&lt;span style=&quot;background-color: initial;&quot;&gt;-appointment&lt;/span&gt;&lt;span style=&quot;background-color: initial;&quot;&gt;Content:string&lt;/span&gt;&lt;/div&gt;" style="text;strokeColor=none;fillColor=none;align=left;verticalAlign=top;spacingLeft=4;spacingRight=4;overflow=hidden;rotatable=0;points=[[0,0.5],[1,0.5]];portConstraint=eastwest;whiteSpace=wrap;html=1;fontSize=16;" parent="TR-krXGhEeYYalR0OKf3-4" vertex="1">
          <mxGeometry y="26" width="380" height="104" as="geometry" />
        </mxCell>
        <mxCell id="TR-krXGhEeYYalR0OKf3-6" value="&lt;div&gt;+scheduleAppointment(doctorId, patientId, appointmentContent, appointmentTime): VOID&lt;/div&gt;&lt;div&gt;+rescheduleAppointment(appointmentId): VOID&lt;/div&gt;&lt;div&gt;+cancelAppointment(appointmentId): VOID&lt;/div&gt;&lt;div&gt;+confirmAttendence(appointmentId): VOID&lt;/div&gt;&lt;div&gt;+displayAppointment(appointmentId): Appointment&lt;/div&gt;" style="text;strokeColor=default;fillColor=none;align=left;verticalAlign=top;spacingLeft=4;spacingRight=4;overflow=hidden;rotatable=0;points=[[0,0.5],[1,0.5]];portConstraint=eastwest;whiteSpace=wrap;html=1;fontSize=16;" parent="TR-krXGhEeYYalR0OKf3-4" vertex="1">
          <mxGeometry y="130" width="380" height="126.95833333333333" as="geometry" />
        </mxCell>
        <mxCell id="cNO487knKn3a9GfRD7Nd-55" value="&lt;span style=&quot;font-size: 16px;&quot;&gt;1..*&lt;/span&gt;" style="text;html=1;align=center;verticalAlign=middle;resizable=0;points=[];autosize=1;strokeColor=none;fillColor=none;fontStyle=1;fontSize=16;" parent="mHEznrFvdN_-LJcOZgv0-4" vertex="1">
          <mxGeometry x="405" y="94.64166666666665" width="50" height="30" as="geometry" />
        </mxCell>
        <mxCell id="cNO487knKn3a9GfRD7Nd-59" value="&lt;span style=&quot;font-size: 16px;&quot;&gt;0..*&lt;/span&gt;" style="text;html=1;align=center;verticalAlign=middle;resizable=0;points=[];autosize=1;strokeColor=none;fillColor=none;fontStyle=1;fontSize=16;" parent="mHEznrFvdN_-LJcOZgv0-4" vertex="1">
          <mxGeometry x="-7.5" y="77.00083333333332" width="50" height="30" as="geometry" />
        </mxCell>
        <mxCell id="mHEznrFvdN_-LJcOZgv0-5" value="" style="group" parent="1" vertex="1" connectable="0">
          <mxGeometry x="-330" y="630" width="430" height="340" as="geometry" />
        </mxCell>
        <mxCell id="TR-krXGhEeYYalR0OKf3-7" value="Message" style="swimlane;fontStyle=1;align=center;verticalAlign=top;childLayout=stackLayout;horizontal=1;startSize=26;horizontalStack=0;resizeParent=1;resizeParentMax=0;resizeLast=0;collapsible=1;marginBottom=0;whiteSpace=wrap;html=1;fontSize=16;" parent="mHEznrFvdN_-LJcOZgv0-5" vertex="1">
          <mxGeometry x="50" y="30" width="380" height="270" as="geometry">
            <mxRectangle x="330" y="70" width="110" height="30" as="alternateBounds" />
          </mxGeometry>
        </mxCell>
        <mxCell id="TR-krXGhEeYYalR0OKf3-8" value="-messageId: int&lt;br&gt;-patientId: int&lt;br&gt;-content: String&lt;br&gt;-message: date&lt;br&gt;-doctorId: int&lt;br&gt;-replyContent: String&lt;br&gt;- replyTime: date" style="text;strokeColor=none;fillColor=none;align=left;verticalAlign=top;spacingLeft=4;spacingRight=4;overflow=hidden;rotatable=0;points=[[0,0.5],[1,0.5]];portConstraint=eastwest;whiteSpace=wrap;html=1;fontSize=16;" parent="TR-krXGhEeYYalR0OKf3-7" vertex="1">
          <mxGeometry y="26" width="380" height="154" as="geometry" />
        </mxCell>
        <mxCell id="TR-krXGhEeYYalR0OKf3-9" value="+sendMessage(doctorId, patientId,&amp;nbsp; Content): VOID&lt;br&gt;+replyMessage(doctorId, patientId, Content): VOID&lt;br&gt;+deleteMessage(messageId): VOID&lt;br&gt;+recieveMessage(doctorId, patientId): VOID" style="text;strokeColor=default;fillColor=none;align=left;verticalAlign=top;spacingLeft=4;spacingRight=4;overflow=hidden;rotatable=0;points=[[0,0.5],[1,0.5]];portConstraint=eastwest;whiteSpace=wrap;html=1;fontSize=16;" parent="TR-krXGhEeYYalR0OKf3-7" vertex="1">
          <mxGeometry y="180" width="380" height="90" as="geometry" />
        </mxCell>
        <mxCell id="cNO487knKn3a9GfRD7Nd-73" value="&lt;span style=&quot;font-size: 16px;&quot;&gt;0..*&lt;/span&gt;" style="text;html=1;align=center;verticalAlign=middle;resizable=0;points=[];autosize=1;strokeColor=none;fillColor=none;fontStyle=1;fontSize=16;" parent="mHEznrFvdN_-LJcOZgv0-5" vertex="1">
          <mxGeometry x="260" width="50" height="30" as="geometry" />
        </mxCell>
        <mxCell id="cNO487knKn3a9GfRD7Nd-74" value="&lt;span style=&quot;font-size: 16px;&quot;&gt;0..*&lt;/span&gt;" style="text;html=1;align=center;verticalAlign=middle;resizable=0;points=[];autosize=1;strokeColor=none;fillColor=none;fontStyle=1;fontSize=16;" parent="mHEznrFvdN_-LJcOZgv0-5" vertex="1">
          <mxGeometry y="140" width="50" height="30" as="geometry" />
        </mxCell>
        <mxCell id="mHEznrFvdN_-LJcOZgv0-6" value="" style="group" parent="1" vertex="1" connectable="0">
          <mxGeometry x="195" y="620" width="470" height="370" as="geometry" />
        </mxCell>
        <mxCell id="TR-krXGhEeYYalR0OKf3-10" value="Test Record" style="swimlane;fontStyle=1;align=center;verticalAlign=top;childLayout=stackLayout;horizontal=1;startSize=26;horizontalStack=0;resizeParent=1;resizeParentMax=0;resizeLast=0;collapsible=1;marginBottom=0;whiteSpace=wrap;html=1;fontSize=16;" parent="mHEznrFvdN_-LJcOZgv0-6" vertex="1">
          <mxGeometry x="-35" y="30" width="460" height="340" as="geometry">
            <mxRectangle x="-10" y="640" width="70" height="30" as="alternateBounds" />
          </mxGeometry>
        </mxCell>
        <mxCell id="TR-krXGhEeYYalR0OKf3-11" value="&lt;div&gt;-testld:int&lt;/div&gt;&lt;div&gt;-patientld:int&lt;/div&gt;&lt;div&gt;-doctorld:int&lt;/div&gt;&lt;div&gt;-Type: string&lt;/div&gt;&lt;div&gt;-Content: string&lt;/div&gt;&lt;div&gt;-testResult:string&lt;/div&gt;" style="text;strokeColor=none;fillColor=none;align=left;verticalAlign=top;spacingLeft=4;spacingRight=4;overflow=hidden;rotatable=0;points=[[0,0.5],[1,0.5]];portConstraint=eastwest;whiteSpace=wrap;html=1;fontSize=16;" parent="TR-krXGhEeYYalR0OKf3-10" vertex="1">
          <mxGeometry y="26" width="460" height="134" as="geometry" />
        </mxCell>
        <mxCell id="TR-krXGhEeYYalR0OKf3-12" value="&lt;div style=&quot;border-color: var(--border-color);&quot;&gt;+orderDiagnosticTest(doctorId, patientId, Content): VOID&lt;/div&gt;&lt;div style=&quot;border-color: var(--border-color);&quot;&gt;+orderMedicalProcedure(doctorId, patientId, Content): VOID&lt;/div&gt;&lt;div style=&quot;border-color: var(--border-color);&quot;&gt;+orderLabWork(doctorId, LabId, Content): VOID&lt;/div&gt;&lt;div style=&quot;border-color: var(--border-color);&quot;&gt;+viewPatientTestStatus(testId, patientId): Test Record&lt;/div&gt;&lt;div style=&quot;border-color: var(--border-color);&quot;&gt;+viewLabWorkStatus(testId, LabId): TestRecord&lt;/div&gt;&lt;div style=&quot;border-color: var(--border-color);&quot;&gt;+receiveTestResultsByLab(testId, LabId): Test Record&lt;/div&gt;&lt;div style=&quot;border-color: var(--border-color);&quot;&gt;+receiveTestResultsByPatient(testId, patientId): Test Record&lt;/div&gt;&lt;div style=&quot;border-color: var(--border-color);&quot;&gt;+returnEmpty(): Test Record&lt;/div&gt;&lt;div style=&quot;border-color: var(--border-color);&quot;&gt;+notifyExistsResults(testId): Test Record&lt;/div&gt;" style="text;strokeColor=default;fillColor=none;align=left;verticalAlign=top;spacingLeft=4;spacingRight=4;overflow=hidden;rotatable=0;points=[[0,0.5],[1,0.5]];portConstraint=eastwest;whiteSpace=wrap;html=1;fontSize=16;" parent="TR-krXGhEeYYalR0OKf3-10" vertex="1">
          <mxGeometry y="160" width="460" height="180" as="geometry" />
        </mxCell>
        <mxCell id="cNO487knKn3a9GfRD7Nd-63" value="&lt;span style=&quot;font-size: 16px;&quot;&gt;0..*&lt;/span&gt;" style="text;html=1;align=center;verticalAlign=middle;resizable=0;points=[];autosize=1;strokeColor=none;fillColor=none;fontStyle=1;fontSize=16;" parent="mHEznrFvdN_-LJcOZgv0-6" vertex="1">
          <mxGeometry x="145" width="50" height="30" as="geometry" />
        </mxCell>
        <mxCell id="yrbX602Al-QU61SsVa9P-5" value="&lt;b&gt;&lt;font style=&quot;font-size: 16px;&quot;&gt;1..*&lt;/font&gt;&lt;/b&gt;" style="text;html=1;align=center;verticalAlign=middle;resizable=0;points=[];autosize=1;strokeColor=none;fillColor=none;" vertex="1" parent="mHEznrFvdN_-LJcOZgv0-6">
          <mxGeometry x="420" y="90" width="50" height="30" as="geometry" />
        </mxCell>
        <mxCell id="mHEznrFvdN_-LJcOZgv0-7" value="" style="group" parent="1" vertex="1" connectable="0">
          <mxGeometry x="210" y="205" width="460" height="350" as="geometry" />
        </mxCell>
        <mxCell id="TR-krXGhEeYYalR0OKf3-1" value="Doctor" style="swimlane;fontStyle=1;align=center;verticalAlign=top;childLayout=stackLayout;horizontal=1;startSize=26;horizontalStack=0;resizeParent=1;resizeParentMax=0;resizeLast=0;collapsible=1;marginBottom=0;whiteSpace=wrap;html=1;fontSize=16;" parent="mHEznrFvdN_-LJcOZgv0-7" vertex="1">
          <mxGeometry x="50" y="30" width="360" height="300" as="geometry">
            <mxRectangle x="90" y="380" width="90" height="30" as="alternateBounds" />
          </mxGeometry>
        </mxCell>
        <mxCell id="TR-krXGhEeYYalR0OKf3-2" value="-doctorId: int&lt;br&gt;-doctorName:string&lt;br&gt;-gender: string&lt;br&gt;-specialization:string&lt;br&gt;-credetial:string&lt;br&gt;-email:string&lt;br&gt;-mobilePhone:string" style="text;strokeColor=none;fillColor=none;align=left;verticalAlign=top;spacingLeft=4;spacingRight=4;overflow=hidden;rotatable=0;points=[[0,0.5],[1,0.5]];portConstraint=eastwest;whiteSpace=wrap;html=1;fontSize=16;" parent="TR-krXGhEeYYalR0OKf3-1" vertex="1">
          <mxGeometry y="26" width="360" height="144" as="geometry" />
        </mxCell>
        <mxCell id="TR-krXGhEeYYalR0OKf3-3" value="&lt;div&gt;+viewPatientRecord(patientId): VOID&lt;/div&gt;&lt;div&gt;+manageAppointment(appintmentId): VOID&lt;/div&gt;&lt;div&gt;+orderTest(doctorId): VOID&lt;/div&gt;&lt;div&gt;+receiveTestResult(testId): VOID&lt;/div&gt;&lt;div&gt;+reviewTestResult(testId):VOID&lt;/div&gt;&lt;div&gt;+manageMessage(messageId): VOID&lt;/div&gt;" style="text;strokeColor=default;fillColor=none;align=left;verticalAlign=top;spacingLeft=4;spacingRight=4;overflow=hidden;rotatable=0;points=[[0,0.5],[1,0.5]];portConstraint=eastwest;whiteSpace=wrap;html=1;fontSize=16;" parent="TR-krXGhEeYYalR0OKf3-1" vertex="1">
          <mxGeometry y="170" width="360" height="130" as="geometry" />
        </mxCell>
        <mxCell id="cNO487knKn3a9GfRD7Nd-54" value="&lt;span style=&quot;font-size: 16px;&quot;&gt;1..*&lt;/span&gt;" style="text;html=1;align=center;verticalAlign=middle;resizable=0;points=[];autosize=1;strokeColor=none;fillColor=none;fontStyle=1;fontSize=16;" parent="mHEznrFvdN_-LJcOZgv0-7" vertex="1">
          <mxGeometry y="120" width="50" height="30" as="geometry" />
        </mxCell>
        <mxCell id="cNO487knKn3a9GfRD7Nd-62" value="&lt;span style=&quot;font-size: 16px;&quot;&gt;1..1&lt;/span&gt;" style="text;html=1;align=center;verticalAlign=middle;resizable=0;points=[];autosize=1;strokeColor=none;fillColor=none;fontStyle=1;fontSize=16;" parent="mHEznrFvdN_-LJcOZgv0-7" vertex="1">
          <mxGeometry x="140" y="330" width="50" height="30" as="geometry" />
        </mxCell>
        <mxCell id="cNO487knKn3a9GfRD7Nd-68" value="&lt;span style=&quot;font-size: 16px;&quot;&gt;1..*&lt;/span&gt;" style="text;html=1;align=center;verticalAlign=middle;resizable=0;points=[];autosize=1;strokeColor=none;fillColor=none;fontStyle=1;fontSize=16;" parent="mHEznrFvdN_-LJcOZgv0-7" vertex="1">
          <mxGeometry x="410" y="224" width="50" height="30" as="geometry" />
        </mxCell>
        <mxCell id="cNO487knKn3a9GfRD7Nd-72" value="&lt;span style=&quot;font-size: 16px;&quot;&gt;1..1&lt;/span&gt;" style="text;html=1;align=center;verticalAlign=middle;resizable=0;points=[];autosize=1;strokeColor=none;fillColor=none;fontStyle=1;fontSize=16;" parent="mHEznrFvdN_-LJcOZgv0-7" vertex="1">
          <mxGeometry y="235" width="50" height="30" as="geometry" />
        </mxCell>
        <mxCell id="cNO487knKn3a9GfRD7Nd-77" value="1..*" style="text;html=1;align=center;verticalAlign=middle;resizable=0;points=[];autosize=1;strokeColor=none;fillColor=none;fontStyle=1;fontSize=16;" parent="mHEznrFvdN_-LJcOZgv0-7" vertex="1">
          <mxGeometry x="410" y="90" width="50" height="30" as="geometry" />
        </mxCell>
        <mxCell id="cNO487knKn3a9GfRD7Nd-85" value="&lt;span style=&quot;font-size: 16px;&quot;&gt;1..*&lt;/span&gt;" style="text;html=1;align=center;verticalAlign=middle;resizable=0;points=[];autosize=1;strokeColor=none;fillColor=none;fontStyle=1;fontSize=16;" parent="mHEznrFvdN_-LJcOZgv0-7" vertex="1">
          <mxGeometry x="140" width="50" height="30" as="geometry" />
        </mxCell>
        <mxCell id="cNO487knKn3a9GfRD7Nd-107" value="1..*" style="text;html=1;align=center;verticalAlign=middle;resizable=0;points=[];autosize=1;strokeColor=none;fillColor=none;fontStyle=1;fontSize=16;" parent="mHEznrFvdN_-LJcOZgv0-7" vertex="1">
          <mxGeometry x="320" width="50" height="30" as="geometry" />
        </mxCell>
        <mxCell id="cNO487knKn3a9GfRD7Nd-98" value="&lt;span style=&quot;font-size: 16px;&quot;&gt;1..1&lt;/span&gt;" style="text;html=1;align=center;verticalAlign=middle;resizable=0;points=[];autosize=1;strokeColor=none;fillColor=none;fontStyle=1;fontSize=16;" parent="mHEznrFvdN_-LJcOZgv0-7" vertex="1">
          <mxGeometry x="220" width="50" height="30" as="geometry" />
        </mxCell>
        <mxCell id="mHEznrFvdN_-LJcOZgv0-8" value="" style="group" parent="1" vertex="1" connectable="0">
          <mxGeometry x="777" y="530" width="430" height="400" as="geometry" />
        </mxCell>
        <mxCell id="TR-krXGhEeYYalR0OKf3-26" value="Laboratory" style="swimlane;fontStyle=1;align=center;verticalAlign=top;childLayout=stackLayout;horizontal=1;startSize=26;horizontalStack=0;resizeParent=1;resizeParentMax=0;resizeLast=0;collapsible=1;marginBottom=0;whiteSpace=wrap;html=1;fontSize=16;" parent="mHEznrFvdN_-LJcOZgv0-8" vertex="1">
          <mxGeometry y="30" width="430" height="270" as="geometry">
            <mxRectangle x="-100" y="290" width="100" height="30" as="alternateBounds" />
          </mxGeometry>
        </mxCell>
        <mxCell id="TR-krXGhEeYYalR0OKf3-27" value="-laboratoryIdL int&lt;br&gt;-labName: string&lt;br&gt;-password: string&lt;br&gt;-telephone: string&lt;br&gt;-age: string" style="text;strokeColor=none;fillColor=none;align=left;verticalAlign=top;spacingLeft=4;spacingRight=4;overflow=hidden;rotatable=0;points=[[0,0.5],[1,0.5]];portConstraint=eastwest;whiteSpace=wrap;html=1;fontSize=16;" parent="TR-krXGhEeYYalR0OKf3-26" vertex="1">
          <mxGeometry y="26" width="430" height="104" as="geometry" />
        </mxCell>
        <mxCell id="TR-krXGhEeYYalR0OKf3-28" value="+recordTest(String name, String results): VOID&lt;br&gt;+checkEquipmentStatus(equipmentId): VOID&lt;br&gt;+inputTroubleInfoRequest(): VOID&lt;br&gt;+sendIssuesInfo(String labType, String issues_Info): VOID&lt;br&gt;+displayIssuesReport(): Issues Report&lt;br&gt;+displayTestRequests(testId): Test Record&lt;br&gt;+returnTestResults(LabId, resultsInfo, workId): Test Record" style="text;strokeColor=default;fillColor=none;align=left;verticalAlign=top;spacingLeft=4;spacingRight=4;overflow=hidden;rotatable=0;points=[[0,0.5],[1,0.5]];portConstraint=eastwest;whiteSpace=wrap;html=1;fontSize=16;" parent="TR-krXGhEeYYalR0OKf3-26" vertex="1">
          <mxGeometry y="130" width="430" height="140" as="geometry" />
        </mxCell>
        <mxCell id="cNO487knKn3a9GfRD7Nd-69" value="1..1" style="text;html=1;align=center;verticalAlign=middle;resizable=0;points=[];autosize=1;strokeColor=none;fillColor=none;fontStyle=1;fontSize=16;" parent="mHEznrFvdN_-LJcOZgv0-8" vertex="1">
          <mxGeometry x="103" width="50" height="30" as="geometry" />
        </mxCell>
        <mxCell id="mHEznrFvdN_-LJcOZgv0-9" value="" style="group" parent="1" vertex="1" connectable="0">
          <mxGeometry x="860" y="280" width="330" height="170" as="geometry" />
        </mxCell>
        <mxCell id="TR-krXGhEeYYalR0OKf3-16" value="Hospital Manager" style="swimlane;fontStyle=1;align=center;verticalAlign=top;childLayout=stackLayout;horizontal=1;startSize=26;horizontalStack=0;resizeParent=1;resizeParentMax=0;resizeLast=0;collapsible=1;marginBottom=0;whiteSpace=wrap;html=1;fontSize=16;" parent="mHEznrFvdN_-LJcOZgv0-9" vertex="1">
          <mxGeometry x="50" width="280" height="170" as="geometry" />
        </mxCell>
        <mxCell id="TR-krXGhEeYYalR0OKf3-17" value="-managerId: int&lt;br&gt;-name:String:" style="text;strokeColor=none;fillColor=none;align=left;verticalAlign=top;spacingLeft=4;spacingRight=4;overflow=hidden;rotatable=0;points=[[0,0.5],[1,0.5]];portConstraint=eastwest;whiteSpace=wrap;html=1;fontSize=16;" parent="TR-krXGhEeYYalR0OKf3-16" vertex="1">
          <mxGeometry y="26" width="280" height="54" as="geometry" />
        </mxCell>
        <mxCell id="TR-krXGhEeYYalR0OKf3-18" value="+scheduleStaff(staffId): VOID&lt;br&gt;+evaludateStaff(staffId): VOID&lt;br&gt;+hireStaff(staffId): VOID&lt;br&gt;+trainStaff(staffId): VOID" style="text;strokeColor=default;fillColor=none;align=left;verticalAlign=top;spacingLeft=4;spacingRight=4;overflow=hidden;rotatable=0;points=[[0,0.5],[1,0.5]];portConstraint=eastwest;whiteSpace=wrap;html=1;fontSize=16;" parent="TR-krXGhEeYYalR0OKf3-16" vertex="1">
          <mxGeometry y="80" width="280" height="90" as="geometry" />
        </mxCell>
        <mxCell id="cNO487knKn3a9GfRD7Nd-78" value="1..*" style="text;html=1;align=center;verticalAlign=middle;resizable=0;points=[];autosize=1;strokeColor=none;fillColor=none;fontStyle=1;fontSize=16;" parent="mHEznrFvdN_-LJcOZgv0-9" vertex="1">
          <mxGeometry y="22" width="50" height="30" as="geometry" />
        </mxCell>
        <mxCell id="mHEznrFvdN_-LJcOZgv0-10" value="" style="group" parent="1" vertex="1" connectable="0">
          <mxGeometry x="810" y="-30" width="560" height="170" as="geometry" />
        </mxCell>
        <mxCell id="cNO487knKn3a9GfRD7Nd-100" value="System Operator" style="swimlane;fontStyle=1;align=center;verticalAlign=top;childLayout=stackLayout;horizontal=1;startSize=26;horizontalStack=0;resizeParent=1;resizeParentMax=0;resizeLast=0;collapsible=1;marginBottom=0;whiteSpace=wrap;html=1;fontSize=16;" parent="mHEznrFvdN_-LJcOZgv0-10" vertex="1">
          <mxGeometry x="77.7777777777778" width="482.22222222222223" height="170" as="geometry" />
        </mxCell>
        <mxCell id="cNO487knKn3a9GfRD7Nd-101" value="-operatorId: int&lt;br&gt;-operatorName: string" style="text;strokeColor=none;fillColor=none;align=left;verticalAlign=top;spacingLeft=4;spacingRight=4;overflow=hidden;rotatable=0;points=[[0,0.5],[1,0.5]];portConstraint=eastwest;whiteSpace=wrap;html=1;fontSize=16;" parent="cNO487knKn3a9GfRD7Nd-100" vertex="1">
          <mxGeometry y="26" width="482.22222222222223" height="54" as="geometry" />
        </mxCell>
        <mxCell id="cNO487knKn3a9GfRD7Nd-102" value="+createStaffAccount(staffName, staffContact, Credentials): VOID&lt;br&gt;+modifyStaffAccount(staffId): VOID&lt;br&gt;+deleteStaffAccount(staffId): VOID&lt;br&gt;+resetPassword(staffId, password): VOID" style="text;strokeColor=default;fillColor=none;align=left;verticalAlign=top;spacingLeft=4;spacingRight=4;overflow=hidden;rotatable=0;points=[[0,0.5],[1,0.5]];portConstraint=eastwest;whiteSpace=wrap;html=1;fontSize=16;" parent="cNO487knKn3a9GfRD7Nd-100" vertex="1">
          <mxGeometry y="80" width="482.22222222222223" height="90" as="geometry" />
        </mxCell>
        <mxCell id="cNO487knKn3a9GfRD7Nd-106" value="1..*" style="text;html=1;align=center;verticalAlign=middle;resizable=0;points=[];autosize=1;strokeColor=none;fillColor=none;fontStyle=1;fontSize=16;" parent="mHEznrFvdN_-LJcOZgv0-10" vertex="1">
          <mxGeometry y="30" width="50" height="30" as="geometry" />
        </mxCell>
        <mxCell id="mHEznrFvdN_-LJcOZgv0-11" value="" style="group;fontColor=#000000;" parent="1" vertex="1" connectable="0">
          <mxGeometry x="540" y="-315" width="570" height="260" as="geometry" />
        </mxCell>
        <mxCell id="TR-krXGhEeYYalR0OKf3-39" value="Prescription Item" style="swimlane;fontStyle=1;align=center;verticalAlign=top;childLayout=stackLayout;horizontal=1;startSize=26;horizontalStack=0;resizeParent=1;resizeParentMax=0;resizeLast=0;collapsible=1;marginBottom=0;whiteSpace=wrap;html=1;fontSize=16;fontColor=#000000;" parent="mHEznrFvdN_-LJcOZgv0-11" vertex="1">
          <mxGeometry x="40" width="530" height="260" as="geometry" />
        </mxCell>
        <mxCell id="TR-krXGhEeYYalR0OKf3-40" value="&lt;div&gt;-prescriptionltemld:int&lt;/div&gt;&lt;div&gt;-drugld:int&lt;/div&gt;&lt;div&gt;-drugNumber:int&lt;/div&gt;&lt;div&gt;-drugDosage: string&lt;/div&gt;" style="text;strokeColor=none;fillColor=none;align=left;verticalAlign=top;spacingLeft=4;spacingRight=4;overflow=hidden;rotatable=0;points=[[0,0.5],[1,0.5]];portConstraint=eastwest;whiteSpace=wrap;html=1;fontSize=16;fontColor=#000000;" parent="TR-krXGhEeYYalR0OKf3-39" vertex="1">
          <mxGeometry y="26" width="530" height="94" as="geometry" />
        </mxCell>
        <mxCell id="TR-krXGhEeYYalR0OKf3-41" value="&lt;div&gt;+viewPrescriptionItem(): List&amp;lt;PrescriptionItem&amp;gt;+ createPrescriptionItem(medicationId, medicationNumber, medicationDosage): int&lt;/div&gt;&lt;div&gt;+ updatePrescriptionItem(prescriptionItemId, medicationId, medicationNumber, medicationDosage): boolean&lt;/div&gt;&lt;div&gt;+ deletePrescriptionItem(prescriptionItemId): boolean&lt;/div&gt;&lt;div&gt;+ getPrescriptionItemById(prescriptionItemIdt): PrescriptionItem&lt;/div&gt;" style="text;strokeColor=default;fillColor=none;align=left;verticalAlign=top;spacingLeft=4;spacingRight=4;overflow=hidden;rotatable=0;points=[[0,0.5],[1,0.5]];portConstraint=eastwest;whiteSpace=wrap;html=1;fontSize=16;fontColor=#000000;" parent="TR-krXGhEeYYalR0OKf3-39" vertex="1">
          <mxGeometry y="120" width="530" height="140" as="geometry" />
        </mxCell>
        <mxCell id="cNO487knKn3a9GfRD7Nd-94" value="&lt;span style=&quot;font-size: 16px;&quot;&gt;1..*&lt;/span&gt;" style="text;html=1;align=center;verticalAlign=middle;resizable=0;points=[];autosize=1;strokeColor=none;fillColor=none;fontStyle=1;fontSize=16;fontColor=#000000;" parent="mHEznrFvdN_-LJcOZgv0-11" vertex="1">
          <mxGeometry x="-10" y="45" width="50" height="30" as="geometry" />
        </mxCell>
        <mxCell id="mHEznrFvdN_-LJcOZgv0-15" style="edgeStyle=orthogonalEdgeStyle;rounded=0;orthogonalLoop=1;jettySize=auto;html=1;entryX=0.75;entryY=0;entryDx=0;entryDy=0;endArrow=none;endFill=0;startArrow=diamondThin;startFill=1;exitX=0;exitY=0.5;exitDx=0;exitDy=0;" parent="1" source="TR-krXGhEeYYalR0OKf3-3" target="TR-krXGhEeYYalR0OKf3-7" edge="1">
          <mxGeometry relative="1" as="geometry">
            <mxPoint x="200" y="480" as="sourcePoint" />
            <Array as="points">
              <mxPoint x="220" y="470" />
              <mxPoint x="220" y="520" />
              <mxPoint x="-25" y="520" />
            </Array>
          </mxGeometry>
        </mxCell>
        <mxCell id="mHEznrFvdN_-LJcOZgv0-16" style="edgeStyle=orthogonalEdgeStyle;rounded=0;orthogonalLoop=1;jettySize=auto;html=1;exitX=1;exitY=0.5;exitDx=0;exitDy=0;entryX=0.25;entryY=0;entryDx=0;entryDy=0;endArrow=none;endFill=0;" parent="1" source="TR-krXGhEeYYalR0OKf3-3" target="TR-krXGhEeYYalR0OKf3-26" edge="1">
          <mxGeometry relative="1" as="geometry" />
        </mxCell>
        <mxCell id="mHEznrFvdN_-LJcOZgv0-17" value="&lt;span style=&quot;font-size: 16px;&quot;&gt;&lt;b&gt;Relate to&lt;/b&gt;&lt;/span&gt;" style="edgeLabel;html=1;align=center;verticalAlign=middle;resizable=0;points=[];" parent="1" vertex="1" connectable="0">
          <mxGeometry x="760.0021052631574" y="450" as="geometry" />
        </mxCell>
        <mxCell id="mHEznrFvdN_-LJcOZgv0-18" style="edgeStyle=orthogonalEdgeStyle;rounded=0;orthogonalLoop=1;jettySize=auto;html=1;exitX=1;exitY=0.5;exitDx=0;exitDy=0;entryX=0.5;entryY=0;entryDx=0;entryDy=0;endArrow=diamondThin;endFill=1;" parent="1" source="TR-krXGhEeYYalR0OKf3-15" target="TR-krXGhEeYYalR0OKf3-1" edge="1">
          <mxGeometry relative="1" as="geometry">
            <mxPoint x="510" y="170" as="targetPoint" />
          </mxGeometry>
        </mxCell>
        <mxCell id="mHEznrFvdN_-LJcOZgv0-19" value="&lt;span style=&quot;font-size: 16px;&quot;&gt;&lt;b&gt;Generate, Modify &lt;br&gt;Prescription&lt;/b&gt;&lt;/span&gt;" style="edgeLabel;html=1;align=center;verticalAlign=middle;resizable=0;points=[];" parent="1" vertex="1" connectable="0">
          <mxGeometry x="440.004360618024" y="20.002584268163545" as="geometry" />
        </mxCell>
        <mxCell id="mHEznrFvdN_-LJcOZgv0-20" value="&lt;span style=&quot;font-size: 16px;&quot;&gt;&lt;b&gt;Manage Doctor Account&lt;/b&gt;&lt;/span&gt;" style="edgeLabel;html=1;align=center;verticalAlign=middle;resizable=0;points=[];" parent="1" vertex="1" connectable="0">
          <mxGeometry x="670.0037597849254" y="10.002432177809368" as="geometry" />
        </mxCell>
        <mxCell id="mHEznrFvdN_-LJcOZgv0-21" style="edgeStyle=orthogonalEdgeStyle;rounded=0;orthogonalLoop=1;jettySize=auto;html=1;exitX=0.75;exitY=0;exitDx=0;exitDy=0;entryX=0;entryY=0.5;entryDx=0;entryDy=0;endArrow=none;endFill=0;" parent="1" source="TR-krXGhEeYYalR0OKf3-1" target="cNO487knKn3a9GfRD7Nd-101" edge="1">
          <mxGeometry relative="1" as="geometry" />
        </mxCell>
        <mxCell id="mHEznrFvdN_-LJcOZgv0-22" style="edgeStyle=orthogonalEdgeStyle;rounded=0;orthogonalLoop=1;jettySize=auto;html=1;exitX=0;exitY=0.5;exitDx=0;exitDy=0;entryX=0.836;entryY=1.005;entryDx=0;entryDy=0;entryPerimeter=0;endArrow=diamondThin;endFill=1;" parent="1" source="TR-krXGhEeYYalR0OKf3-8" target="TR-krXGhEeYYalR0OKf3-21" edge="1">
          <mxGeometry relative="1" as="geometry" />
        </mxCell>
        <mxCell id="mHEznrFvdN_-LJcOZgv0-23" value="&lt;span style=&quot;font-size: 16px;&quot;&gt;&lt;b&gt;Manage Message&lt;/b&gt;&lt;/span&gt;" style="edgeLabel;html=1;align=center;verticalAlign=middle;resizable=0;points=[];" parent="1" vertex="1" connectable="0">
          <mxGeometry x="-580.0028792626019" y="649.9996581283772" as="geometry" />
        </mxCell>
        <mxCell id="mHEznrFvdN_-LJcOZgv0-24" style="edgeStyle=orthogonalEdgeStyle;rounded=0;orthogonalLoop=1;jettySize=auto;html=1;exitX=0;exitY=0.5;exitDx=0;exitDy=0;entryX=1;entryY=0;entryDx=0;entryDy=0;endArrow=diamondThin;endFill=1;" parent="1" source="TR-krXGhEeYYalR0OKf3-15" target="TR-krXGhEeYYalR0OKf3-19" edge="1">
          <mxGeometry relative="1" as="geometry">
            <Array as="points">
              <mxPoint x="-380" y="-105" />
              <mxPoint x="-380" y="210" />
            </Array>
          </mxGeometry>
        </mxCell>
        <mxCell id="mHEznrFvdN_-LJcOZgv0-25" value="&lt;span style=&quot;font-size: 16px;&quot;&gt;&lt;b&gt;Request&lt;/b&gt;&lt;/span&gt;" style="edgeLabel;html=1;align=center;verticalAlign=middle;resizable=0;points=[];" parent="1" vertex="1" connectable="0">
          <mxGeometry x="-330.00191820881287" y="-120.00140768305258" as="geometry" />
        </mxCell>
        <mxCell id="mHEznrFvdN_-LJcOZgv0-26" style="edgeStyle=orthogonalEdgeStyle;rounded=0;orthogonalLoop=1;jettySize=auto;html=1;exitX=1;exitY=0.5;exitDx=0;exitDy=0;entryX=0.25;entryY=0;entryDx=0;entryDy=0;endArrow=diamondThin;endFill=1;" parent="1" source="cNO487knKn3a9GfRD7Nd-51" target="TR-krXGhEeYYalR0OKf3-1" edge="1">
          <mxGeometry relative="1" as="geometry">
            <Array as="points">
              <mxPoint x="-555" y="-85" />
              <mxPoint x="-510" y="-85" />
              <mxPoint x="-510" y="40" />
              <mxPoint x="350" y="40" />
            </Array>
          </mxGeometry>
        </mxCell>
        <mxCell id="mHEznrFvdN_-LJcOZgv0-27" value="&lt;span style=&quot;font-size: 16px;&quot;&gt;&lt;b&gt;Access, Update Patient Medical History&lt;/b&gt;&lt;/span&gt;" style="edgeLabel;html=1;align=center;verticalAlign=middle;resizable=0;points=[];" parent="1" vertex="1" connectable="0">
          <mxGeometry x="-179.99570356623295" y="20.001831537540795" as="geometry" />
        </mxCell>
        <mxCell id="cNO487knKn3a9GfRD7Nd-82" value="1..1" style="text;html=1;align=center;verticalAlign=middle;resizable=0;points=[];autosize=1;strokeColor=none;fillColor=none;fontStyle=1;fontSize=16;" parent="1" vertex="1">
          <mxGeometry x="-761" y="-19.999209486166023" width="50" height="30" as="geometry" />
        </mxCell>
        <mxCell id="yrbX602Al-QU61SsVa9P-3" style="edgeStyle=orthogonalEdgeStyle;rounded=0;orthogonalLoop=1;jettySize=auto;html=1;exitX=1;exitY=0.5;exitDx=0;exitDy=0;entryX=0;entryY=0.5;entryDx=0;entryDy=0;endArrow=none;endFill=0;" edge="1" parent="1" source="TR-krXGhEeYYalR0OKf3-11" target="TR-krXGhEeYYalR0OKf3-27">
          <mxGeometry relative="1" as="geometry" />
        </mxCell>
        <mxCell id="yrbX602Al-QU61SsVa9P-6" value="&lt;b&gt;&lt;font style=&quot;font-size: 16px;&quot;&gt;Receive &lt;br&gt;and Manage&lt;/font&gt;&lt;/b&gt;" style="edgeLabel;html=1;align=center;verticalAlign=middle;resizable=0;points=[];" vertex="1" connectable="0" parent="yrbX602Al-QU61SsVa9P-3">
          <mxGeometry x="-0.0736" y="2" relative="1" as="geometry">
            <mxPoint y="-10" as="offset" />
          </mxGeometry>
        </mxCell>
        <mxCell id="yrbX602Al-QU61SsVa9P-4" value="&lt;b&gt;&lt;font style=&quot;font-size: 16px;&quot;&gt;1..*&lt;/font&gt;&lt;/b&gt;" style="text;html=1;align=center;verticalAlign=middle;resizable=0;points=[];autosize=1;strokeColor=none;fillColor=none;" vertex="1" parent="1">
          <mxGeometry x="735" y="638" width="50" height="30" as="geometry" />
        </mxCell>
      </root>
    </mxGraphModel>
  </diagram>
</mxfile>
